<svg width="18" height="22" viewBox="0 0 18 22" fill="none" xmlns="http://www.w3.org/2000/svg">
<path d="M17.6 17.9631C17.6 21.5809 12.5779 22 8.8 22C8.41922 22 8.04397 21.9945 7.67537 21.9835C7.23703 21.9725 6.89167 21.6084 6.90496 21.1717C6.91713 20.7361 7.2957 20.4083 7.72075 20.405C8.07497 20.4149 8.43472 20.4193 8.8 20.4193C13.5841 20.4193 16.0105 19.5933 16.0105 17.9631C16.0105 16.3175 13.5841 15.4827 8.8 15.4827C4.0159 15.4827 1.58953 16.3098 1.58953 17.9411C1.58953 18.4746 1.77992 19.2479 3.43255 19.8045C3.84875 19.9442 4.07124 20.3918 3.93067 20.8043C3.78898 21.2168 3.33957 21.4423 2.92226 21.2993C0.506968 20.4864 0 19.0246 0 17.9411C0 14.396 4.8192 13.9215 8.5672 13.9037L9.21893 13.9039C11.7184 13.9166 17.6 14.1373 17.6 17.9631ZM8.8 0C12.0676 0 14.7253 2.64213 14.7253 5.88925C14.7253 9.13527 12.0676 11.7774 8.8 11.7774C5.53238 11.7774 2.87356 9.13527 2.87356 5.88925C2.87356 2.64213 5.53238 0 8.8 0ZM8.8 1.58066C6.40906 1.58066 4.4642 3.51331 4.4642 5.88925C4.4642 8.26409 6.40906 10.1967 8.8 10.1967C11.1909 10.1967 13.1358 8.26409 13.1358 5.88925C13.1358 3.51331 11.1909 1.58066 8.8 1.58066Z" fill="black"/>
</svg>
