<svg width="21" height="19" viewBox="0 0 21 19" fill="none" xmlns="http://www.w3.org/2000/svg">
<path d="M18.6131 2.27911C18.1412 1.80693 17.581 1.43237 16.9643 1.17682C16.3476 0.92126 15.6866 0.789725 15.0191 0.789725C14.3516 0.789725 13.6906 0.92126 13.0739 1.17682C12.4572 1.43237 11.897 1.80693 11.4251 2.27911L10.4461 3.25811L9.46711 2.27911C8.99706 1.79846 8.43635 1.41582 7.81741 1.15336C7.19848 0.890904 6.53363 0.75383 5.86136 0.750079C5.18909 0.746328 4.52275 0.875975 3.90093 1.13151C3.27911 1.38705 2.71415 1.7634 2.23878 2.23878C1.7634 2.71415 1.38705 3.27911 1.13151 3.90093C0.875975 4.52275 0.746328 5.18909 0.750079 5.86136C0.75383 6.53363 0.890904 7.19848 1.15336 7.81741C1.41582 8.43635 1.79846 8.99706 2.27911 9.46711L3.25811 10.4461L10.4461 17.6341L17.6341 10.4461L18.6131 9.46711C19.0853 8.99525 19.4598 8.43497 19.7154 7.8183C19.971 7.20162 20.1025 6.54064 20.1025 5.87311C20.1025 5.20558 19.971 4.54459 19.7154 3.92791C19.4598 3.31124 19.0853 2.75096 18.6131 2.27911V2.27911Z" stroke="#303030" stroke-width="1.5" stroke-linecap="round" stroke-linejoin="round"/>
</svg>
